<svg xmlns="http://www.w3.org/2000/svg" xmlns:xlink="http://www.w3.org/1999/xlink" width="1366" zoomAndPan="magnify" viewBox="0 0 1024.5 576" height="768" preserveAspectRatio="xMidYMid meet" version="1.0"><defs><clipPath id="bc1444b854"><path d="M 436 83.761719 L 683.714844 83.761719 L 683.714844 332 L 436 332 Z M 436 83.761719 " clip-rule="nonzero"/></clipPath><clipPath id="a1b00617cd"><path d="M 241.429688 365 L 375 365 L 375 518.550781 L 241.429688 518.550781 Z M 241.429688 365 " clip-rule="nonzero"/></clipPath></defs><g clip-path="url(#bc1444b854)"><path fill="#321abf" d="M 680.214844 183.21875 L 657.738281 180.546875 L 648.167969 157.453125 L 662.175781 139.675781 C 663.453125 138.058594 663.3125 135.746094 661.855469 134.289062 L 633.234375 105.667969 C 631.777344 104.210938 629.464844 104.078125 627.847656 105.34375 L 610.070312 119.351562 L 586.976562 109.785156 L 584.304688 87.308594 C 584.0625 85.261719 582.332031 83.726562 580.265625 83.726562 L 539.789062 83.726562 C 537.726562 83.726562 535.992188 85.261719 535.753906 87.308594 L 533.082031 109.785156 L 509.988281 119.351562 L 492.210938 105.34375 C 490.59375 104.066406 488.28125 104.210938 486.824219 105.667969 L 458.203125 134.289062 C 456.746094 135.746094 456.613281 138.058594 457.878906 139.675781 L 471.886719 157.453125 L 462.320312 180.546875 L 439.84375 183.21875 C 437.796875 183.457031 436.261719 185.191406 436.261719 187.253906 L 436.261719 227.730469 C 436.261719 229.796875 437.796875 231.527344 439.84375 231.769531 L 462.320312 234.441406 L 471.886719 257.535156 L 457.878906 275.3125 C 456.601562 276.929688 456.746094 279.242188 458.203125 280.699219 L 486.824219 309.320312 C 488.28125 310.777344 490.59375 310.917969 492.210938 309.640625 L 509.988281 295.632812 L 533.082031 305.203125 L 535.753906 327.679688 C 535.992188 329.722656 537.726562 331.261719 539.789062 331.261719 L 580.265625 331.261719 C 582.332031 331.261719 584.0625 329.722656 584.304688 327.679688 L 586.976562 305.203125 L 610.070312 295.632812 L 627.847656 309.640625 C 629.464844 310.917969 631.777344 310.777344 633.234375 309.320312 L 661.855469 280.699219 C 663.3125 279.242188 663.445312 276.929688 662.175781 275.3125 L 648.167969 257.535156 L 657.738281 234.441406 L 680.214844 231.769531 C 682.257812 231.527344 683.796875 229.796875 683.796875 227.730469 L 683.796875 187.253906 C 683.796875 185.191406 682.257812 183.457031 680.214844 183.21875 Z M 560.042969 260.222656 C 530.964844 260.222656 507.308594 236.566406 507.308594 207.488281 C 507.308594 178.410156 530.964844 154.753906 560.042969 154.753906 C 589.121094 154.753906 612.777344 178.410156 612.777344 207.488281 C 612.777344 236.566406 589.121094 260.222656 560.042969 260.222656 Z M 560.042969 260.222656 " fill-opacity="1" fill-rule="nonzero"/></g><path fill="#321abf" d="M 671.941406 343.355469 C 666.070312 337.773438 646.027344 331.5625 621.496094 347.984375 C 621.449219 348.011719 621.414062 348.046875 621.371094 348.074219 C 616.339844 351.871094 611.988281 355.191406 608.167969 358.113281 C 588.433594 373.195312 583.125 377.25 570.539062 380.359375 C 568.582031 380.832031 567.035156 381.207031 565.820312 381.492188 C 565.820312 381.492188 565.222656 381.636719 565.035156 381.679688 C 564.9375 381.699219 564.847656 381.726562 564.757812 381.75 C 563.054688 382.277344 561.390625 384.101562 558.28125 387.851562 C 557.460938 388.84375 556.675781 389.792969 556.199219 390.273438 C 549.617188 396.894531 536.617188 396.5625 481.9375 395.167969 C 472.835938 394.9375 462.578125 394.679688 451.011719 394.410156 C 448.507812 394.347656 446.472656 392.273438 446.472656 389.773438 C 446.472656 388.515625 446.964844 387.34375 447.867188 386.460938 C 448.769531 385.574219 449.964844 385.101562 451.214844 385.128906 C 494.121094 386.039062 528.792969 386.613281 537.332031 386.664062 C 540.664062 386.648438 543.800781 385.101562 545.800781 382.421875 C 547.917969 379.527344 548.257812 372.433594 547.347656 369.503906 C 543.265625 356.59375 526.621094 335.789062 499.457031 334.894531 L 449.832031 331.011719 C 445.070312 330.636719 440.066406 329.285156 434.277344 327.714844 C 408.710938 320.800781 373.683594 311.320312 300.546875 365.574219 C 299.957031 366.011719 299.574219 366.664062 299.472656 367.386719 C 299.375 368.109375 299.574219 368.84375 300.027344 369.421875 L 376.972656 467.546875 C 377.417969 468.109375 378.0625 468.476562 378.777344 468.566406 C 378.882812 468.574219 378.988281 468.585938 379.097656 468.585938 C 379.703125 468.585938 380.292969 468.378906 380.769531 468.003906 C 382.179688 466.894531 383.472656 465.707031 384.734375 464.554688 C 394.328125 455.753906 406.261719 444.792969 494.613281 449.128906 C 564.179688 452.53125 580.492188 439.453125 641.21875 390.757812 C 650.324219 383.457031 660.632812 375.1875 672.210938 366.109375 C 675.34375 363.679688 677.257812 359.980469 677.472656 355.960938 C 677.703125 351.441406 675.746094 346.957031 671.960938 343.347656 Z M 671.941406 343.355469 " fill-opacity="1" fill-rule="nonzero"/><g clip-path="url(#a1b00617cd)"><path fill="#321abf" d="M 287.84375 371.238281 C 285.269531 367.957031 281.570312 365.867188 277.425781 365.367188 C 273.289062 364.867188 269.199219 366.011719 265.910156 368.585938 L 242.632812 386.824219 C 242.070312 387.273438 241.703125 387.914062 241.613281 388.628906 C 241.523438 389.34375 241.730469 390.058594 242.167969 390.632812 L 341.390625 517.164062 C 341.835938 517.726562 342.480469 518.09375 343.195312 518.183594 C 343.300781 518.191406 343.410156 518.199219 343.515625 518.199219 C 344.125 518.199219 344.710938 517.996094 345.1875 517.621094 L 368.457031 499.359375 C 371.734375 496.785156 373.828125 493.089844 374.328125 488.953125 C 374.828125 484.816406 373.683594 480.722656 371.109375 477.445312 L 287.84375 371.226562 Z M 287.84375 371.238281 " fill-opacity="1" fill-rule="nonzero"/></g></svg>