<svg xmlns="http://www.w3.org/2000/svg" xmlns:xlink="http://www.w3.org/1999/xlink" width="1366" zoomAndPan="magnify" viewBox="0 0 1024.5 576" height="768" preserveAspectRatio="xMidYMid meet" version="1.0"><defs><clipPath id="6eb8d28862"><path d="M 297.382812 52.089844 L 746.414062 52.089844 L 746.414062 523.609375 L 297.382812 523.609375 Z M 297.382812 52.089844 " clip-rule="nonzero"/></clipPath></defs><path fill="#ffffff" d="M 521.808594 168.863281 C 472.226562 168.863281 432.035156 211.078125 432.035156 263.148438 C 432.035156 315.226562 472.226562 357.441406 521.808594 357.441406 C 571.386719 357.441406 611.574219 315.226562 611.574219 263.148438 C 611.574219 211.078125 571.386719 168.863281 521.808594 168.863281 " fill-opacity="1" fill-rule="nonzero"/><g clip-path="url(#6eb8d28862)"><path fill="#ffffff" d="M 670.898438 450.726562 C 651.015625 402.195312 609.277344 371.839844 521.671875 371.839844 C 434.179688 371.839844 392.441406 402.113281 372.527344 450.535156 C 332.003906 409.460938 306.792969 351.820312 306.792969 287.996094 C 306.792969 163.265625 403.058594 62.152344 521.808594 62.152344 C 640.558594 62.152344 736.824219 163.265625 736.824219 287.996094 C 736.824219 351.921875 711.53125 409.640625 670.898438 450.726562 Z M 521.808594 52.273438 C 397.863281 52.273438 297.382812 157.808594 297.382812 287.996094 C 297.382812 356.085938 324.871094 417.433594 368.832031 460.46875 C 408.910156 499.707031 462.6875 523.71875 521.808594 523.71875 C 580.824219 523.71875 634.519531 499.789062 674.585938 460.664062 C 718.65625 417.625 746.230469 356.191406 746.230469 287.996094 C 746.230469 157.808594 645.75 52.273438 521.808594 52.273438 " fill-opacity="1" fill-rule="nonzero"/></g></svg>