<svg xmlns="http://www.w3.org/2000/svg" xmlns:xlink="http://www.w3.org/1999/xlink" width="1366" zoomAndPan="magnify" viewBox="0 0 1024.5 576" height="768" preserveAspectRatio="xMidYMid meet" version="1.0"><defs><clipPath id="c2aaf38c6b"><path d="M 324.582031 34.109375 L 699.398438 34.109375 L 699.398438 541.613281 L 324.582031 541.613281 Z M 324.582031 34.109375 " clip-rule="nonzero"/></clipPath></defs><g clip-path="url(#c2aaf38c6b)"><path fill="#321abf" d="M 680.628906 239.960938 L 654.730469 239.960938 L 654.730469 176.996094 C 654.832031 98.191406 590.753906 34.109375 511.945312 34.109375 C 433.140625 34.109375 369.058594 98.191406 369.058594 176.996094 L 369.058594 239.960938 L 343.265625 239.960938 C 333.007812 239.960938 324.679688 248.289062 324.679688 258.546875 L 324.679688 523.398438 C 324.679688 533.554688 333.007812 541.882812 343.265625 541.882812 L 680.730469 541.882812 C 690.988281 541.882812 699.316406 533.554688 699.316406 523.296875 L 699.316406 258.546875 C 699.214844 248.289062 690.886719 239.960938 680.628906 239.960938 Z M 406.230469 176.996094 C 406.230469 118.703125 453.65625 71.277344 511.945312 71.277344 C 570.238281 71.277344 617.664062 118.703125 617.664062 176.996094 L 617.664062 239.960938 L 406.230469 239.960938 Z M 530.53125 404.277344 L 530.53125 453.125 C 530.53125 463.378906 522.203125 471.707031 511.945312 471.707031 C 501.691406 471.707031 493.363281 463.378906 493.363281 453.125 L 493.363281 404.277344 C 480.566406 397.574219 471.832031 384.167969 471.832031 368.832031 C 471.832031 346.695312 489.808594 328.820312 511.84375 328.820312 C 533.984375 328.820312 551.859375 346.796875 551.859375 368.832031 C 552.0625 384.167969 543.328125 397.574219 530.53125 404.277344 Z M 530.53125 404.277344 " fill-opacity="1" fill-rule="nonzero"/></g></svg>