<svg xmlns="http://www.w3.org/2000/svg" xmlns:xlink="http://www.w3.org/1999/xlink" width="1366" zoomAndPan="magnify" viewBox="0 0 1024.5 576" height="768" preserveAspectRatio="xMidYMid meet" version="1.0"><defs><clipPath id="9815c13645"><path d="M 238.65625 393 L 363 393 L 363 561.140625 L 238.65625 561.140625 Z M 238.65625 393 " clip-rule="nonzero"/></clipPath><clipPath id="b82c8b103d"><path d="M 644 420 L 785.140625 420 L 785.140625 561.140625 L 644 561.140625 Z M 644 420 " clip-rule="nonzero"/></clipPath><clipPath id="beac705d0e"><path d="M 250 14.65625 L 785.140625 14.65625 L 785.140625 533 L 250 533 Z M 250 14.65625 " clip-rule="nonzero"/></clipPath><clipPath id="0a8cf6fb5c"><path d="M 256 14.65625 L 310 14.65625 L 310 68 L 256 68 Z M 256 14.65625 " clip-rule="nonzero"/></clipPath><clipPath id="c50f1109b9"><path d="M 326 14.65625 L 380 14.65625 L 380 68 L 326 68 Z M 326 14.65625 " clip-rule="nonzero"/></clipPath><clipPath id="8026fb04aa"><path d="M 397 14.65625 L 451 14.65625 L 451 68 L 397 68 Z M 397 14.65625 " clip-rule="nonzero"/></clipPath></defs><g clip-path="url(#9815c13645)"><path fill="#321abf" d="M 344.46875 393.808594 L 277.578125 393.808594 C 272.941406 393.808594 268.390625 395.6875 265.109375 398.976562 L 243.824219 420.261719 C 240.492188 423.59375 238.65625 428.019531 238.65625 432.730469 L 238.65625 543.707031 C 238.65625 553.429688 246.566406 561.339844 256.292969 561.339844 L 344.46875 561.339844 C 354.191406 561.339844 362.101562 553.429688 362.101562 543.707031 L 362.101562 411.445312 C 362.101562 401.71875 354.191406 393.808594 344.46875 393.808594 Z M 273.929688 415.09375 L 273.929688 429.078125 L 259.945312 429.078125 Z M 344.46875 543.707031 L 256.292969 543.707031 L 256.292969 446.714844 L 273.929688 446.714844 C 283.652344 446.714844 291.5625 438.804688 291.5625 429.078125 L 291.5625 411.445312 L 344.46875 411.445312 Z M 344.46875 543.707031 " fill-opacity="1" fill-rule="nonzero"/></g><path fill="#321abf" d="M 273.929688 464.347656 L 326.832031 464.347656 L 326.832031 481.984375 L 273.929688 481.984375 Z M 273.929688 464.347656 " fill-opacity="1" fill-rule="nonzero"/><path fill="#321abf" d="M 273.929688 499.617188 L 326.832031 499.617188 L 326.832031 517.253906 L 273.929688 517.253906 Z M 273.929688 499.617188 " fill-opacity="1" fill-rule="nonzero"/><path fill="#321abf" d="M 309.199219 429.078125 L 326.832031 429.078125 L 326.832031 446.714844 L 309.199219 446.714844 Z M 309.199219 429.078125 " fill-opacity="1" fill-rule="nonzero"/><g clip-path="url(#b82c8b103d)"><path fill="#321abf" d="M 767.707031 420.261719 L 661.894531 420.261719 C 652.171875 420.261719 644.261719 428.171875 644.261719 437.894531 L 644.261719 543.707031 C 644.261719 553.429688 652.171875 561.339844 661.894531 561.339844 L 767.707031 561.339844 C 777.429688 561.339844 785.339844 553.429688 785.339844 543.707031 L 785.339844 437.894531 C 785.339844 428.171875 777.429688 420.261719 767.707031 420.261719 Z M 723.617188 543.707031 L 723.617188 490.800781 L 705.984375 490.800781 L 705.984375 543.707031 L 661.894531 543.707031 L 661.894531 437.894531 L 705.984375 437.894531 L 705.984375 473.164062 L 723.617188 473.164062 L 723.617188 437.894531 L 767.707031 437.894531 L 767.714844 543.707031 Z M 723.617188 543.707031 " fill-opacity="1" fill-rule="nonzero"/></g><g clip-path="url(#beac705d0e)"><path fill="#321abf" d="M 593.941406 479.398438 L 605.339844 490.800781 L 545.445312 490.800781 C 624.203125 457.144531 679.53125 378.914062 679.53125 288 C 679.53125 259.855469 673.753906 233.03125 663.34375 208.640625 L 714.800781 208.640625 C 724.527344 208.640625 732.4375 200.734375 732.4375 191.007812 L 732.4375 85.199219 C 732.4375 75.472656 724.527344 67.5625 714.800781 67.5625 L 697.164062 67.5625 C 687.441406 67.5625 679.53125 75.472656 679.53125 85.199219 L 679.53125 191.007812 L 661.894531 191.007812 L 661.894531 120.160156 C 661.894531 110.433594 653.988281 102.523438 644.261719 102.523438 L 626.625 102.523438 C 616.902344 102.523438 608.992188 110.433594 608.992188 120.160156 L 608.992188 134.453125 C 594.8125 122.222656 578.949219 111.921875 561.765625 103.953125 C 576.242188 61.425781 616.378906 32.292969 661.894531 32.292969 C 720.242188 32.292969 767.707031 79.757812 767.707031 138.101562 C 767.707031 177.964844 745.152344 214.125 710.402344 232.097656 L 714.34375 220.253906 L 697.625 214.671875 L 686.671875 247.519531 L 718.734375 268.890625 L 728.511719 254.21875 L 718.679688 247.667969 C 759.109375 226.664062 785.339844 184.535156 785.339844 138.101562 C 785.339844 70.03125 729.96875 14.65625 661.894531 14.65625 C 609.175781 14.65625 562.613281 48.148438 545.417969 97.199219 C 523.957031 89.449219 500.828125 85.199219 476.730469 85.199219 C 364.898438 85.199219 273.929688 176.175781 273.929688 288 L 273.929688 337.253906 L 262.527344 325.851562 L 250.058594 338.320312 L 282.746094 371.007812 L 315.433594 338.320312 L 302.964844 325.851562 L 291.5625 337.253906 L 291.5625 288 C 291.5625 185.894531 374.632812 102.832031 476.730469 102.832031 C 578.828125 102.832031 661.894531 185.894531 661.894531 288 C 661.894531 399.820312 570.925781 490.800781 459.09375 490.800781 L 379.738281 490.800781 L 379.738281 508.4375 L 605.339844 508.4375 L 593.941406 519.835938 L 606.40625 532.304688 L 639.09375 499.617188 L 606.40625 466.933594 Z M 697.164062 85.199219 L 714.800781 85.199219 L 714.800781 191.007812 L 697.164062 191.007812 Z M 644.261719 120.160156 L 644.261719 173.867188 C 638.898438 166.019531 633.011719 158.550781 626.625 151.550781 L 626.625 120.160156 Z M 644.261719 120.160156 " fill-opacity="1" fill-rule="nonzero"/></g><path fill="#321abf" d="M 476.730469 367.355469 C 520.492188 367.355469 556.085938 331.75 556.085938 288 C 556.085938 244.246094 520.492188 208.640625 476.730469 208.640625 C 432.96875 208.640625 397.371094 244.246094 397.371094 288 C 397.371094 331.75 432.96875 367.355469 476.730469 367.355469 Z M 476.730469 226.277344 C 510.757812 226.277344 538.453125 253.964844 538.453125 288 C 538.453125 322.035156 510.757812 349.722656 476.730469 349.722656 C 442.703125 349.722656 415.007812 322.035156 415.007812 288 C 415.007812 253.964844 442.703125 226.277344 476.730469 226.277344 Z M 476.730469 226.277344 " fill-opacity="1" fill-rule="nonzero"/><path fill="#321abf" d="M 476.730469 332.085938 C 501.039062 332.085938 520.816406 312.308594 520.816406 288 C 520.816406 263.6875 501.039062 243.910156 476.730469 243.910156 C 452.417969 243.910156 432.640625 263.6875 432.640625 288 C 432.640625 312.308594 452.417969 332.085938 476.730469 332.085938 Z M 476.730469 261.546875 C 491.3125 261.546875 503.183594 273.414062 503.183594 288 C 503.183594 302.582031 491.3125 314.453125 476.730469 314.453125 C 462.144531 314.453125 450.277344 302.582031 450.277344 288 C 450.277344 273.414062 462.144531 261.546875 476.730469 261.546875 Z M 476.730469 261.546875 " fill-opacity="1" fill-rule="nonzero"/><path fill="#321abf" d="M 370.292969 252.730469 L 344.46875 252.730469 L 344.46875 323.269531 L 370.292969 323.269531 C 375.761719 323.269531 377.914062 327.441406 378.449219 328.71875 C 378.980469 329.996094 380.398438 334.457031 376.527344 338.320312 L 358.277344 356.582031 L 408.148438 406.460938 L 426.40625 388.199219 C 430.269531 384.339844 434.742188 385.765625 436.019531 386.289062 C 437.289062 386.816406 441.460938 388.96875 441.460938 394.433594 L 441.460938 420.261719 L 512 420.261719 L 512 394.433594 C 512 388.96875 516.167969 386.816406 517.441406 386.289062 C 518.71875 385.75 523.1875 384.328125 527.050781 388.199219 L 545.3125 406.460938 L 595.183594 356.582031 L 576.929688 338.3125 C 573.070312 334.449219 574.488281 329.988281 575.007812 328.710938 C 575.546875 327.441406 577.699219 323.269531 583.164062 323.269531 L 608.992188 323.269531 L 608.992188 252.730469 L 583.164062 252.730469 C 577.699219 252.730469 575.546875 248.558594 575.007812 247.28125 C 574.480469 246 573.058594 241.539062 576.929688 237.679688 L 595.183594 219.417969 L 545.3125 169.535156 L 527.050781 187.796875 C 523.199219 191.660156 518.726562 190.238281 517.441406 189.710938 C 516.167969 189.183594 512 187.03125 512 181.5625 L 512 155.738281 L 441.460938 155.738281 L 441.460938 181.5625 C 441.460938 187.03125 437.289062 189.183594 436.019531 189.710938 C 434.730469 190.238281 430.261719 191.660156 426.40625 187.796875 L 408.148438 169.535156 L 358.277344 219.417969 L 376.527344 237.6875 C 380.390625 241.546875 378.96875 246.011719 378.449219 247.289062 C 377.914062 248.558594 375.761719 252.730469 370.292969 252.730469 Z M 388.996094 225.210938 L 383.210938 219.417969 L 408.148438 194.472656 L 413.941406 200.265625 C 421.648438 207.980469 432.695312 210.183594 442.773438 205.996094 C 452.835938 201.835938 459.09375 192.472656 459.09375 181.5625 L 459.09375 173.371094 L 494.363281 173.371094 L 494.363281 181.5625 C 494.363281 192.460938 500.625 201.824219 510.695312 205.996094 C 520.800781 210.183594 531.820312 207.972656 539.527344 200.265625 L 545.320312 194.472656 L 570.257812 219.417969 L 564.472656 225.210938 C 556.765625 232.917969 554.5625 243.964844 558.730469 254.035156 C 562.894531 264.105469 572.257812 270.363281 583.164062 270.363281 L 591.355469 270.363281 L 591.355469 305.632812 L 583.164062 305.632812 C 572.257812 305.632812 562.894531 311.894531 558.722656 321.972656 C 554.550781 332.042969 556.757812 343.089844 564.464844 350.796875 L 570.246094 356.589844 L 545.3125 381.535156 L 539.519531 375.742188 C 531.820312 368.035156 520.789062 365.832031 510.683594 370.011719 C 500.625 374.164062 494.363281 383.527344 494.363281 394.433594 L 494.363281 402.625 L 459.09375 402.625 L 459.09375 394.433594 C 459.09375 383.535156 452.835938 374.171875 442.765625 370 C 432.6875 365.820312 421.636719 368.035156 413.929688 375.734375 L 408.136719 381.527344 L 383.203125 356.582031 L 388.988281 350.789062 C 396.695312 343.082031 398.898438 332.035156 394.726562 321.964844 C 390.566406 311.894531 381.199219 305.632812 370.292969 305.632812 L 362.101562 305.632812 L 362.101562 270.363281 L 370.292969 270.363281 C 381.199219 270.363281 390.566406 264.105469 394.734375 254.027344 C 398.90625 243.957031 396.703125 232.90625 388.996094 225.210938 Z M 388.996094 225.210938 " fill-opacity="1" fill-rule="nonzero"/><g clip-path="url(#0a8cf6fb5c)"><path fill="#321abf" d="M 273.929688 67.5625 L 291.5625 67.5625 C 301.289062 67.5625 309.199219 59.652344 309.199219 49.929688 L 309.199219 32.292969 C 309.199219 22.566406 301.289062 14.65625 291.5625 14.65625 L 273.929688 14.65625 C 264.203125 14.65625 256.292969 22.566406 256.292969 32.292969 L 256.292969 49.929688 C 256.292969 59.652344 264.203125 67.5625 273.929688 67.5625 Z M 273.929688 32.292969 L 291.5625 32.292969 L 291.570312 49.929688 L 273.929688 49.929688 Z M 273.929688 32.292969 " fill-opacity="1" fill-rule="nonzero"/></g><g clip-path="url(#c50f1109b9)"><path fill="#321abf" d="M 344.46875 67.5625 L 362.101562 67.5625 C 371.828125 67.5625 379.738281 59.652344 379.738281 49.929688 L 379.738281 32.292969 C 379.738281 22.566406 371.828125 14.65625 362.101562 14.65625 L 344.46875 14.65625 C 334.742188 14.65625 326.832031 22.566406 326.832031 32.292969 L 326.832031 49.929688 C 326.832031 59.652344 334.742188 67.5625 344.46875 67.5625 Z M 344.46875 32.292969 L 362.101562 32.292969 L 362.109375 49.929688 L 344.46875 49.929688 Z M 344.46875 32.292969 " fill-opacity="1" fill-rule="nonzero"/></g><g clip-path="url(#8026fb04aa)"><path fill="#321abf" d="M 415.007812 67.5625 L 432.640625 67.5625 C 442.367188 67.5625 450.277344 59.652344 450.277344 49.929688 L 450.277344 32.292969 C 450.277344 22.566406 442.367188 14.65625 432.640625 14.65625 L 415.007812 14.65625 C 405.28125 14.65625 397.371094 22.566406 397.371094 32.292969 L 397.371094 49.929688 C 397.371094 59.652344 405.28125 67.5625 415.007812 67.5625 Z M 415.007812 32.292969 L 432.640625 32.292969 L 432.652344 49.929688 L 415.007812 49.929688 Z M 415.007812 32.292969 " fill-opacity="1" fill-rule="nonzero"/></g></svg>